<svg width="48" height="48" viewBox="0 0 48 48" fill="none" xmlns="http://www.w3.org/2000/svg">
<rect width="48" height="48" rx="24" fill="black"/>
<g clip-path="url(#clip0_4_19)">
<path fill-rule="evenodd" clip-rule="evenodd" d="M24.0003 12.5C21.1515 12.5015 18.3961 13.5105 16.2269 15.3465C14.0576 17.1826 12.6159 19.726 12.1595 22.522C11.7032 25.318 12.2619 28.1842 13.7359 30.6082C15.2098 33.0321 17.5028 34.8558 20.2049 35.753C20.8011 35.8636 21.0256 35.4941 21.0256 35.18C21.0256 34.8658 21.0137 33.955 21.0097 32.9592C17.6714 33.6804 16.966 31.5505 16.966 31.5505C16.4215 30.1674 15.6346 29.8039 15.6346 29.8039C14.5457 29.065 15.7161 29.0788 15.7161 29.0788C16.9223 29.1637 17.5562 30.3097 17.5562 30.3097C18.6252 32.1333 20.3639 31.6058 21.0475 31.2976C21.1548 30.5251 21.4667 29.9995 21.8105 29.7012C19.1438 29.4008 16.342 28.3774 16.342 23.8054C16.3255 22.6197 16.768 21.4731 17.578 20.6027C17.4548 20.3024 17.0435 19.0892 17.6952 17.4414C17.6952 17.4414 18.7027 17.1214 20.9958 18.6644C22.9627 18.1296 25.0379 18.1296 27.0047 18.6644C29.2958 17.1214 30.3013 17.4414 30.3013 17.4414C30.9551 19.0853 30.5437 20.2984 30.4205 20.6027C31.2331 21.4732 31.6765 22.6218 31.6585 23.8094C31.6585 28.3912 28.8507 29.4008 26.1801 29.6952C26.6093 30.0667 26.9928 30.7918 26.9928 31.9061C26.9928 33.5026 26.9789 34.7868 26.9789 35.18C26.9789 35.4981 27.1955 35.8695 27.8035 35.753C30.5059 34.8557 32.7992 33.0317 34.2731 30.6073C35.747 28.183 36.3055 25.3163 35.8486 22.5201C35.3917 19.7238 33.9493 17.1804 31.7793 15.3446C29.6094 13.5089 26.8533 12.5005 24.0042 12.5H24.0003Z" fill="white"/>
<path d="M20.0278 31.9753C20.0278 32.0721 19.9166 32.1551 19.7735 32.1571C19.6304 32.159 19.5132 32.08 19.5132 31.9832C19.5132 31.8864 19.6245 31.8034 19.7675 31.8014C19.9106 31.7995 20.0278 31.8765 20.0278 31.9753Z" fill="white"/>
<path d="M20.9419 31.8232C20.9598 31.92 20.8604 32.0207 20.7174 32.0445C20.5743 32.0682 20.4491 32.0109 20.4312 31.916C20.4133 31.8212 20.5167 31.7185 20.6558 31.6928C20.7949 31.6671 20.924 31.7264 20.9419 31.8232Z" fill="white"/>
<path d="M19.0462 31.9081C19.0164 32.0009 18.8812 32.0424 18.7461 32.0029C18.611 31.9634 18.5216 31.8528 18.5474 31.7579C18.5732 31.6631 18.7104 31.6196 18.8475 31.6631C18.9846 31.7066 19.072 31.8113 19.0462 31.9081Z" fill="white"/>
<path d="M18.1461 31.5209C18.0805 31.594 17.9473 31.5742 17.8381 31.4754C17.7288 31.3766 17.7029 31.2423 17.7685 31.1712C17.8341 31.1 17.9672 31.1198 18.0805 31.2166C18.1937 31.3134 18.2156 31.4497 18.1461 31.5209Z" fill="white"/>
<path d="M17.5042 30.857C17.4307 30.9083 17.3055 30.857 17.236 30.7542C17.2168 30.7358 17.2015 30.7137 17.191 30.6893C17.1806 30.6648 17.1752 30.6385 17.1752 30.612C17.1752 30.5854 17.1806 30.5591 17.191 30.5347C17.2015 30.5102 17.2168 30.4881 17.236 30.4697C17.3095 30.4203 17.4347 30.4697 17.5042 30.5705C17.5738 30.6712 17.5758 30.8056 17.5042 30.857Z" fill="white"/>
<path d="M17.0313 30.1714C16.9901 30.192 16.9431 30.1978 16.8981 30.1877C16.8532 30.1776 16.8131 30.1523 16.7849 30.1161C16.7074 30.0331 16.6915 29.9185 16.7511 29.8671C16.8107 29.8157 16.918 29.8395 16.9955 29.9224C17.073 30.0054 17.0909 30.12 17.0313 30.1714Z" fill="white"/>
<path d="M16.5444 29.632C16.5186 29.6913 16.4232 29.7091 16.3457 29.6676C16.2682 29.6261 16.2106 29.549 16.2384 29.4878C16.2662 29.4265 16.3596 29.4107 16.4371 29.4522C16.5146 29.4937 16.5742 29.5727 16.5444 29.632Z" fill="white"/>
</g>
<defs>
<clipPath id="clip0_4_19">
<rect width="24" height="24" fill="white" transform="translate(12 12)"/>
</clipPath>
</defs>
</svg>
