<svg width="48" height="48" viewBox="0 0 48 48" fill="none" xmlns="http://www.w3.org/2000/svg">
<rect width="48" height="48" rx="24" fill="#3F6ABD"/>
<path d="M34.6776 35.0845C33.3299 35.0524 32.0142 35.0524 30.6664 35.0845C30.3776 35.0845 30.3134 35.0203 30.3134 34.7315C30.3134 32.3568 30.3134 29.9501 30.3134 27.5754C30.3134 27.0299 30.2813 26.4844 30.1208 25.9709C29.6395 24.3022 27.7141 23.6925 26.3342 24.8157C25.5961 25.3933 25.3073 26.1955 25.3073 27.1582C25.3073 29.4046 25.3073 31.6509 25.3073 33.8972C25.3073 34.186 25.2752 34.4748 25.3073 34.7957C25.3394 35.0524 25.2111 35.1166 24.9864 35.0845C23.6065 35.0845 22.2588 35.0845 20.8789 35.0845C20.6222 35.0845 20.558 35.0203 20.558 34.7636C20.5901 32.7419 20.5901 30.7203 20.5901 28.6665C20.5901 26.1635 20.5901 23.6604 20.558 21.1895C20.558 20.9007 20.6222 20.8365 20.8789 20.8365C22.2588 20.8365 23.6065 20.8365 24.9864 20.8365C25.2431 20.8365 25.3073 20.9007 25.3073 21.1574C25.3073 21.6708 25.3073 22.1843 25.3073 22.794C25.4036 22.6977 25.4357 22.6656 25.4678 22.6335C26.7193 20.8044 28.4842 20.291 30.5701 20.6119C32.9769 20.9969 34.5172 22.6656 34.9023 25.2328C34.9985 25.8426 35.0306 26.4523 35.0306 27.062C35.0306 29.6292 35.0306 32.1643 35.0306 34.7315C35.0306 34.9882 34.9665 35.0845 34.6776 35.0845Z" fill="white"/>
<path d="M17.9907 27.9605C17.9907 30.2068 17.9907 32.4531 17.9907 34.6994C17.9907 34.9882 17.9266 35.0845 17.6378 35.0845C16.29 35.0524 14.9422 35.0845 13.5944 35.0845C13.3377 35.0845 13.2735 35.0203 13.2735 34.7636C13.2735 30.2389 13.2735 25.6821 13.2735 21.1574C13.2735 20.9328 13.3377 20.8365 13.5944 20.8365C14.9743 20.8365 16.3542 20.8365 17.734 20.8365C18.0228 20.8365 18.0549 20.9328 18.0549 21.1895C17.9907 23.4358 17.9907 25.6821 17.9907 27.9605Z" fill="white"/>
<path d="M18.2154 17.114C17.8945 18.3976 16.5788 19.1357 15.0705 18.879C13.466 18.6222 12.5675 17.0498 13.1451 15.5095C13.5302 14.5468 14.4608 13.9692 15.6482 14.0013C17.4452 13.9692 18.6326 15.4132 18.2154 17.114Z" fill="white"/>
</svg>
